<svg xmlns="http://www.w3.org/2000/svg" version="1.1" xmlns:xlink="http://www.w3.org/1999/xlink" xmlns:svgjs="http://svgjs.dev/svgjs" width="1000" height="623" viewBox="0 0 1000 623"><g transform="matrix(1,0,0,1,-0.6060606060606233,0.2522267206477409)"><svg viewBox="0 0 396 247" data-background-color="#fce44d" preserveAspectRatio="xMidYMid meet" height="623" width="1000" xmlns="http://www.w3.org/2000/svg" xmlns:xlink="http://www.w3.org/1999/xlink"><g id="tight-bounds" transform="matrix(1,0,0,1,0.2400000000000091,-0.09999999999999432)"><svg viewBox="0 0 395.52 247.2" height="247.2" width="395.52"><g><svg></svg></g><g><svg viewBox="0 0 395.52 247.2" height="247.2" width="395.52"><g transform="matrix(1,0,0,1,58.49001672,90.62808813118863)"><svg viewBox="0 0 278.53996656 65.94382373762272" height="65.94382373762272" width="278.53996656"><g><svg viewBox="0 0 278.53996656 65.94382373762272" height="65.94382373762272" width="278.53996656"><g><svg viewBox="0 0 278.53996656 65.94382373762272" height="65.94382373762272" width="278.53996656"><g><path d="M0 65.944v-65.944h278.54v65.944z" fill="#000000" stroke="transparent" stroke-width="0" rx="0%" data-fill-palette-color="tertiary"></path><path d="M3.156 62.787v-59.631h272.228v59.631z" fill="#fce44d" stroke="transparent" stroke-width="0" rx="0%" data-fill-palette-color="quaternary"></path><path d="M9.469 56.475v-47.006h259.602v47.006z" fill="#000000" stroke="transparent" stroke-width="0" data-fill-palette-color="tertiary"></path></g><g transform="matrix(1,0,0,1,18.93801672,18.93801672)" id="textblocktransform"><svg viewBox="0 0 240.66393311999997 28.06779029762273" height="28.06779029762273" width="240.66393311999997" id="textblock"><g><svg viewBox="0 0 240.66393311999997 28.06779029762273" height="28.06779029762273" width="240.66393311999997"><g transform="matrix(1,0,0,1,0,0)"><svg width="240.66393311999997" viewBox="3.950000047683716 -39.95000076293945 346.375 40.400001525878906" height="28.06779029762273" data-palette-color="#fce44d"><path d="M30.95-11.3L30.95-8Q30.95-3.95 28.25-1.95L28.25-1.95Q26.95-1 25.58-0.48 24.2 0.05 22.9 0.05L22.9 0.05 12 0.05Q10.7 0.05 9.33-0.48 7.95-1 6.65-1.95L6.65-1.95Q5.35-2.95 4.65-4.42 3.95-5.9 3.95-8L3.95-8 3.95-31.75Q3.95-33.75 4.65-35.27 5.35-36.8 6.65-37.75L6.65-37.75 6.6-37.75Q7.9-38.6 9.3-39.15 10.7-39.7 12-39.7L12-39.7 22.9-39.7Q24.2-39.7 25.6-39.15 27-38.6 28.3-37.75L28.3-37.75 28.25-37.75Q29.55-36.8 30.25-35.27 30.95-33.75 30.95-31.75L30.95-31.75 30.95-28.3Q30.95-25.9 27.95-25.9L27.95-25.9Q25-25.9 25-28.3L25-28.3 25-31.3Q25-32.55 24.25-33.6 23.5-34.65 21.65-34.65L21.65-34.65 13.25-34.65Q11.4-34.65 10.65-33.6 9.9-32.55 9.9-31.3L9.9-31.3 9.9-8.4Q9.9-7.1 10.65-6.05 11.4-5 13.25-5L13.25-5 21.65-5Q23.5-5 24.25-6.05 25-7.1 25-8.4L25-8.4 25-11.3Q25-13.65 27.95-13.65L27.95-13.65Q30.95-13.65 30.95-11.3L30.95-11.3ZM59.7 0.05L41.4 0.05Q39.55 0.05 38.9-0.9 38.25-1.85 38.25-3L38.25-3 38.25-36.7Q38.25-37.85 38.9-38.78 39.55-39.7 41.4-39.7L41.4-39.7 58.8-39.7Q60.65-39.7 60.75-37.2L60.75-37.2Q60.85-34.65 58.8-34.65L58.8-34.65 44.15-34.65 44.15-5 59.7-5Q61.55-5 61.6-2.55L61.6-2.55Q61.7 0.05 59.7 0.05L59.7 0.05ZM56.95-20.65L56.95-20.65Q56.95-18.9 55.72-17.7 54.5-16.5 52.75-16.5L52.75-16.5Q51.05-16.5 49.85-17.7 48.65-18.9 48.65-20.65L48.65-20.65Q48.65-22.4 49.85-23.6 51.05-24.8 52.75-24.8L52.75-24.8Q54.5-24.8 55.72-23.6 56.95-22.4 56.95-20.65ZM76.3-22.85L85.95-22.85Q87.25-22.85 88.65-22.3 90.05-21.75 91.34-20.85L91.34-20.85 91.3-20.85Q92.59-19.95 93.3-18.4 94-16.85 94-14.85L94-14.85 94-8Q94-3.95 91.3-1.95L91.3-1.95Q90-1 88.62-0.48 87.25 0.05 85.95 0.05L85.95 0.05 75.05 0.05Q73.75 0.05 72.37-0.48 71-1 69.7-1.95L69.7-1.95Q67-3.95 67-8L67-8 67-11.3Q67-13.65 69.95-13.65L69.95-13.65Q72.95-13.65 72.95-11.3L72.95-11.3 72.95-8.4Q72.95-7.1 73.7-6.05 74.45-5 76.3-5L76.3-5 84.7-5Q86.55-5 87.3-6.05 88.05-7.1 88.05-8.4L88.05-8.4 88.05-14.45Q88.05-15.7 87.3-16.78 86.55-17.85 84.7-17.85L84.7-17.85 75.05-17.85Q72.45-17.85 69.7-19.75L69.7-19.75Q67-21.85 67-25.8L67-25.8 67-31.75Q67-33.75 67.7-35.27 68.4-36.8 69.7-37.75L69.7-37.75 69.65-37.75Q70.95-38.6 72.34-39.15 73.75-39.7 75.05-39.7L75.05-39.7 85.95-39.7Q87.25-39.7 88.65-39.15 90.05-38.6 91.34-37.75L91.34-37.75 91.3-37.75Q92.59-36.8 93.3-35.27 94-33.75 94-31.75L94-31.75 94-28.8Q94-26.45 91-26.45L91-26.45Q88.05-26.45 88.05-28.8L88.05-28.8 88.05-31.3Q88.05-32.55 87.3-33.6 86.55-34.65 84.7-34.65L84.7-34.65 76.3-34.65Q74.45-34.65 73.7-33.6 72.95-32.55 72.95-31.3L72.95-31.3 72.95-26.2Q72.95-24.9 73.7-23.88 74.45-22.85 76.3-22.85L76.3-22.85ZM115.19-34.65L115.19-2Q115.19 0.4 112.19 0.4L112.19 0.4Q109.24 0.4 109.24-2L109.24-2 109.24-34.65 100.49-34.65Q98.69-34.65 98.59-37.2L98.59-37.2Q98.59-39.7 100.49-39.7L100.49-39.7 123.94-39.7Q125.84-39.7 125.74-37.2L125.74-37.2Q125.74-34.65 123.94-34.65L123.94-34.65 115.19-34.65ZM154.34-1.2L143.34-34.8 132.39-1.2 132.39-1.25Q132.09-0.5 131.56-0.03 131.04 0.45 130.29 0.45L130.29 0.45Q129.89 0.45 129.51 0.38 129.14 0.3 128.74 0.2L128.74 0.2 128.79 0.2Q125.94-0.7 126.69-3L126.69-3 138.09-37.65Q138.34-38.45 138.97-39 139.59-39.55 140.44-39.65L140.44-39.65Q141.29-39.8 142.09-39.88 142.89-39.95 143.34-39.95L143.34-39.95Q143.79-39.95 144.59-39.88 145.39-39.8 146.24-39.7L146.24-39.7Q146.94-39.6 147.62-38.95 148.29-38.3 148.64-37.65L148.64-37.65Q151.44-29.05 154.31-20.33 157.19-11.6 159.99-3L159.99-3Q160.69-0.7 157.89 0.2L157.89 0.2Q157.49 0.3 157.16 0.38 156.84 0.45 156.44 0.45L156.44 0.45Q155.74 0.45 155.16-0.03 154.59-0.5 154.34-1.25L154.34-1.25 154.34-1.2ZM147.09-12L147.09-12Q147.09-10.4 145.97-9.28 144.84-8.15 143.24-8.15L143.24-8.15Q141.64-8.15 140.54-9.28 139.44-10.4 139.44-12L139.44-12Q139.44-13.6 140.54-14.73 141.64-15.85 143.24-15.85L143.24-15.85Q144.84-15.85 145.97-14.73 147.09-13.6 147.09-12ZM185.64-37.55L185.64-2.1Q185.64 0.3 182.64 0.3L182.64 0.3Q179.69 0.3 179.69-2.1L179.69-2.1 179.69-37.55Q179.69-39.95 182.64-39.95L182.64-39.95Q185.64-39.95 185.64-37.55L185.64-37.55ZM215.78-10.5L215.78-37.55Q215.78-39.95 218.73-39.95L218.73-39.95Q221.68-39.95 221.68-37.55L221.68-37.55 221.68-3.05Q221.68-1.3 219.83-0.5L219.83-0.5 219.88-0.5Q219.08-0.15 218.18 0.05 217.28 0.25 216.43 0.25L216.43 0.25Q215.78 0.25 215.08 0.13 214.38 0 213.76-0.28 213.13-0.55 212.61-1.03 212.08-1.5 211.78-2.2L211.78-2.2 200.93-29.25 199.58-29.1 199.58-2.1Q199.58 0.3 196.58 0.3L196.58 0.3Q193.63 0.3 193.63-2.1L193.63-2.1 193.63-36.55Q193.63-38.6 195.43-39.3L195.43-39.3Q197.08-39.95 198.93-39.95L198.93-39.95Q200.23-39.95 201.56-39.43 202.88-38.9 203.58-37.45L203.58-37.45 214.38-10.35 215.78-10.5ZM235.28-37.55L235.28-2.1Q235.28 0.3 232.28 0.3L232.28 0.3Q229.33 0.3 229.33-2.1L229.33-2.1 229.33-37.55Q229.33-39.95 232.28-39.95L232.28-39.95Q235.28-39.95 235.28-37.55L235.28-37.55ZM270.23-11.3L270.23-8Q270.23-3.95 267.53-1.95L267.53-1.95Q266.23-1 264.85-0.48 263.48 0.05 262.18 0.05L262.18 0.05 251.28 0.05Q249.98 0.05 248.6-0.48 247.23-1 245.93-1.95L245.93-1.95Q244.63-2.95 243.93-4.42 243.23-5.9 243.23-8L243.23-8 243.23-31.75Q243.23-33.75 243.93-35.27 244.63-36.8 245.93-37.75L245.93-37.75 245.88-37.75Q247.18-38.6 248.58-39.15 249.98-39.7 251.28-39.7L251.28-39.7 262.18-39.7Q263.48-39.7 264.88-39.15 266.28-38.6 267.58-37.75L267.58-37.75 267.53-37.75Q268.83-36.8 269.53-35.27 270.23-33.75 270.23-31.75L270.23-31.75 270.23-28.3Q270.23-25.9 267.23-25.9L267.23-25.9Q264.28-25.9 264.28-28.3L264.28-28.3 264.28-31.3Q264.28-32.55 263.53-33.6 262.78-34.65 260.93-34.65L260.93-34.65 252.53-34.65Q250.68-34.65 249.93-33.6 249.18-32.55 249.18-31.3L249.18-31.3 249.18-8.4Q249.18-7.1 249.93-6.05 250.68-5 252.53-5L252.53-5 260.93-5Q262.78-5 263.53-6.05 264.28-7.1 264.28-8.4L264.28-8.4 264.28-11.3Q264.28-13.65 267.23-13.65L267.23-13.65Q270.23-13.65 270.23-11.3L270.23-11.3ZM283.63-37.55L283.63-2.1Q283.63 0.3 280.63 0.3L280.63 0.3Q277.68 0.3 277.68-2.1L277.68-2.1 277.68-37.55Q277.68-39.95 280.63-39.95L280.63-39.95Q283.63-39.95 283.63-37.55L283.63-37.55ZM315.77-1.2L304.77-34.8 293.82-1.2 293.82-1.25Q293.52-0.5 293-0.03 292.47 0.45 291.72 0.45L291.72 0.45Q291.32 0.45 290.95 0.38 290.57 0.3 290.17 0.2L290.17 0.2 290.22 0.2Q287.37-0.7 288.12-3L288.12-3 299.52-37.65Q299.77-38.45 300.4-39 301.02-39.55 301.87-39.65L301.87-39.65Q302.72-39.8 303.52-39.88 304.32-39.95 304.77-39.95L304.77-39.95Q305.22-39.95 306.02-39.88 306.82-39.8 307.67-39.7L307.67-39.7Q308.37-39.6 309.05-38.95 309.72-38.3 310.07-37.65L310.07-37.65Q312.87-29.05 315.75-20.33 318.62-11.6 321.42-3L321.42-3Q322.12-0.7 319.32 0.2L319.32 0.2Q318.92 0.3 318.6 0.38 318.27 0.45 317.87 0.45L317.87 0.45Q317.17 0.45 316.6-0.03 316.02-0.5 315.77-1.25L315.77-1.25 315.77-1.2ZM308.52-12L308.52-12Q308.52-10.4 307.4-9.28 306.27-8.15 304.67-8.15L304.67-8.15Q303.07-8.15 301.97-9.28 300.87-10.4 300.87-12L300.87-12Q300.87-13.6 301.97-14.73 303.07-15.85 304.67-15.85L304.67-15.85Q306.27-15.85 307.4-14.73 308.52-13.6 308.52-12ZM348.52 0.05L329.07 0.05Q327.22 0.05 326.57-0.9 325.92-1.85 325.92-3L325.92-3 325.92-37.55Q325.92-39.95 328.82-39.95L328.82-39.95Q331.82-39.95 331.82-37.55L331.82-37.55 331.82-5 348.52-5Q350.32-5 350.32-2.55L350.32-2.55Q350.42 0.05 348.52 0.05L348.52 0.05Z" opacity="1" transform="matrix(1,0,0,1,0,0)" fill="#fce44d" class="undefined-text-0" data-fill-palette-color="quaternary" id="text-0"></path></svg></g></svg></g></svg></g></svg></g><g></g></svg></g></svg></g><g mask="url(&quot;#7f163d1a-2625-49c5-89dd-3e1f1ecbd2b4&quot;)"><g transform="matrix(2.451975306645166, 0, 0, 2.451975306645166, 75.16123466774168, 1)"><svg version="1.1" xmlns="http://www.w3.org/2000/svg" xmlns:xlink="http://www.w3.org/1999/xlink" x="0" y="0" viewBox="0 0 100 100.00100708007812" enable-background="new 0 0 100 100.001" xml:space="preserve" width="100" height="100.00100708007812" class="icon-none" data-fill-palette-color="accent" id="none"><rect x="29.412" y="29.413" width="41.178" height="23.53" fill="#000000" data-fill-palette-color="accent"></rect><path d="M73.53 0.001H26.471V0L0 23.53v47.059c0 2.941 2.941 5.883 5.882 5.883h20.956l11.397 20.589c1.635 2.94 2.941 2.94 5.883 2.94h11.764c2.942 0 4.249 0 5.884-2.94l11.396-20.589h20.956c2.942 0 5.882-2.941 5.882-5.883V23.53L73.53 0.001zM63.972 82.354h-5.147v5.885h2.021l-2.021 3.675v-3.675h-5.882v5.881h-5.884v-5.881h-5.882v3.675l-2.021-3.675h2.021v-5.885H36.03l-3.309-5.882h8.456v5.882h5.882v-5.882h5.884v5.882h5.882v-5.882h8.456L63.972 82.354zM76.471 58.825H23.53V23.53h52.941V58.825z" fill="#000000" data-fill-palette-color="accent"></path><rect x="47.059" y="82.354" width="5.884" height="5.883" fill="#000000" data-fill-palette-color="accent"></rect></svg></g></g></svg></g><defs><mask id="7f163d1a-2625-49c5-89dd-3e1f1ecbd2b4"><rect width="640" height="400" fill="white"></rect><rect width="306.39396321600003" height="78.56916821762272" fill="black" y="84.31541589118864" x="44.563018391999975" id="transform-me"></rect></mask></defs></svg><rect width="395.52" height="247.2" fill="none" stroke="none" visibility="hidden"></rect></g></svg></g></svg>